<svg xmlns="http://www.w3.org/2000/svg" xmlns:xlink="http://www.w3.org/1999/xlink" width="316" zoomAndPan="magnify" viewBox="0 0 236.87999 191.999996" height="256" preserveAspectRatio="xMidYMid meet" version="1.0"><defs><g/><clipPath id="9e456d1283"><path d="M 14.71875 0.046875 L 206.621094 0.046875 L 206.621094 191.949219 L 14.71875 191.949219 Z M 14.71875 0.046875 " clip-rule="nonzero"/></clipPath><clipPath id="4fbd2b8a47"><rect x="0" width="148" y="0" height="88"/></clipPath><clipPath id="f0a63f6d06"><path d="M 163 70 L 172 70 L 172 88 L 163 88 Z M 163 70 " clip-rule="nonzero"/></clipPath><clipPath id="f43c351359"><path d="M 169.984375 70.191406 L 171.558594 87.359375 L 164.839844 87.976562 L 163.265625 70.808594 Z M 169.984375 70.191406 " clip-rule="nonzero"/></clipPath><clipPath id="76ce6e6590"><path d="M 169.984375 70.191406 L 171.558594 87.359375 L 164.839844 87.976562 L 163.265625 70.808594 Z M 169.984375 70.191406 " clip-rule="nonzero"/></clipPath><clipPath id="3347e66840"><path d="M 162.929688 62.492188 L 169.390625 62.492188 L 169.390625 68.953125 L 162.929688 68.953125 Z M 162.929688 62.492188 " clip-rule="nonzero"/></clipPath><clipPath id="07ba69fcc0"><path d="M 166.160156 62.492188 C 164.378906 62.492188 162.929688 63.941406 162.929688 65.722656 C 162.929688 67.507812 164.378906 68.953125 166.160156 68.953125 C 167.945312 68.953125 169.390625 67.507812 169.390625 65.722656 C 169.390625 63.941406 167.945312 62.492188 166.160156 62.492188 Z M 166.160156 62.492188 " clip-rule="nonzero"/></clipPath><clipPath id="3c5b16bc06"><path d="M 0.929688 0.492188 L 7.390625 0.492188 L 7.390625 6.953125 L 0.929688 6.953125 Z M 0.929688 0.492188 " clip-rule="nonzero"/></clipPath><clipPath id="27c760c4fb"><path d="M 4.160156 0.492188 C 2.378906 0.492188 0.929688 1.941406 0.929688 3.722656 C 0.929688 5.507812 2.378906 6.953125 4.160156 6.953125 C 5.945312 6.953125 7.390625 5.507812 7.390625 3.722656 C 7.390625 1.941406 5.945312 0.492188 4.160156 0.492188 Z M 4.160156 0.492188 " clip-rule="nonzero"/></clipPath><clipPath id="7d4f91b10e"><rect x="0" width="8" y="0" height="7"/></clipPath><clipPath id="9b2c7c8b29"><path d="M 172 67 L 192 67 L 192 87 L 172 87 Z M 172 67 " clip-rule="nonzero"/></clipPath><clipPath id="c56fad9113"><path d="M 179.886719 63.226562 L 195.300781 74.71875 L 183.8125 90.132812 L 168.394531 78.640625 Z M 179.886719 63.226562 " clip-rule="nonzero"/></clipPath><clipPath id="399aa1db1f"><path d="M 191.3125 75.300781 C 192.074219 80.527344 188.453125 85.378906 183.230469 86.140625 C 178.003906 86.902344 173.148438 83.285156 172.386719 78.058594 C 171.625 72.835938 175.242188 67.980469 180.46875 67.21875 C 185.695312 66.457031 190.546875 70.074219 191.3125 75.300781 Z M 191.3125 75.300781 " clip-rule="nonzero"/></clipPath><clipPath id="80a1af014c"><path d="M 0 0 L 20 0 L 20 20 L 0 20 Z M 0 0 " clip-rule="nonzero"/></clipPath><clipPath id="ba17fa19c1"><path d="M 7.886719 -3.773438 L 23.300781 7.71875 L 11.8125 23.132812 L -3.605469 11.640625 Z M 7.886719 -3.773438 " clip-rule="nonzero"/></clipPath><clipPath id="620ea2f304"><path d="M 19.3125 8.300781 C 20.074219 13.527344 16.453125 18.378906 11.230469 19.140625 C 6.003906 19.902344 1.148438 16.285156 0.386719 11.058594 C -0.375 5.835938 3.242188 0.980469 8.46875 0.21875 C 13.695312 -0.542969 18.546875 3.074219 19.3125 8.300781 Z M 19.3125 8.300781 " clip-rule="nonzero"/></clipPath><clipPath id="3922b72afa"><rect x="0" width="20" y="0" height="20"/></clipPath><clipPath id="e3d55da80e"><rect x="0" width="151" y="0" height="74"/></clipPath><clipPath id="366ef3af2a"><path d="M 0.09375 1 L 11 1 L 11 12.675781 L 0.09375 12.675781 Z M 0.09375 1 " clip-rule="nonzero"/></clipPath><clipPath id="0b95980640"><path d="M 8 6 L 13 6 L 13 12.675781 L 8 12.675781 Z M 8 6 " clip-rule="nonzero"/></clipPath><clipPath id="b3c33c4df1"><rect x="0" width="15" y="0" height="13"/></clipPath><clipPath id="83bfd2c405"><rect x="0" width="18" y="0" height="18"/></clipPath><clipPath id="4ddbdeab2d"><rect x="0" width="15" y="0" height="13"/></clipPath><clipPath id="f2c5041d71"><path d="M 177 71 L 181 71 L 181 76 L 177 76 Z M 177 71 " clip-rule="nonzero"/></clipPath><clipPath id="5c7096fce1"><path d="M 174.574219 71.546875 L 187.972656 69.929688 L 189.410156 81.835938 L 176.015625 83.453125 Z M 174.574219 71.546875 " clip-rule="nonzero"/></clipPath><clipPath id="c2c1e8526c"><path d="M 174.574219 71.546875 L 187.972656 69.929688 L 189.410156 81.835938 L 176.015625 83.453125 Z M 174.574219 71.546875 " clip-rule="nonzero"/></clipPath><clipPath id="ee5c388320"><path d="M 181 70 L 186 70 L 186 75 L 181 75 Z M 181 70 " clip-rule="nonzero"/></clipPath><clipPath id="fb647d0e4d"><path d="M 174.574219 71.546875 L 187.972656 69.929688 L 189.410156 81.835938 L 176.015625 83.453125 Z M 174.574219 71.546875 " clip-rule="nonzero"/></clipPath><clipPath id="588f1db449"><path d="M 174.574219 71.546875 L 187.972656 69.929688 L 189.410156 81.835938 L 176.015625 83.453125 Z M 174.574219 71.546875 " clip-rule="nonzero"/></clipPath><clipPath id="220fc406dd"><path d="M 175 74 L 179 74 L 179 79 L 175 79 Z M 175 74 " clip-rule="nonzero"/></clipPath><clipPath id="b13e5799b0"><path d="M 174.574219 71.546875 L 187.972656 69.929688 L 189.410156 81.835938 L 176.015625 83.453125 Z M 174.574219 71.546875 " clip-rule="nonzero"/></clipPath><clipPath id="1190fe8d99"><path d="M 174.574219 71.546875 L 187.972656 69.929688 L 189.410156 81.835938 L 176.015625 83.453125 Z M 174.574219 71.546875 " clip-rule="nonzero"/></clipPath><clipPath id="0885a61338"><path d="M 185 73 L 189 73 L 189 78 L 185 78 Z M 185 73 " clip-rule="nonzero"/></clipPath><clipPath id="7a846012af"><path d="M 174.574219 71.546875 L 187.972656 69.929688 L 189.410156 81.835938 L 176.015625 83.453125 Z M 174.574219 71.546875 " clip-rule="nonzero"/></clipPath><clipPath id="e8fefb7fb4"><path d="M 174.574219 71.546875 L 187.972656 69.929688 L 189.410156 81.835938 L 176.015625 83.453125 Z M 174.574219 71.546875 " clip-rule="nonzero"/></clipPath><clipPath id="e363f9d7ea"><path d="M 177 75 L 187 75 L 187 83 L 177 83 Z M 177 75 " clip-rule="nonzero"/></clipPath><clipPath id="9a30bbe3f0"><path d="M 174.574219 71.546875 L 187.972656 69.929688 L 189.410156 81.835938 L 176.015625 83.453125 Z M 174.574219 71.546875 " clip-rule="nonzero"/></clipPath><clipPath id="a4101a4c63"><path d="M 174.574219 71.546875 L 187.972656 69.929688 L 189.410156 81.835938 L 176.015625 83.453125 Z M 174.574219 71.546875 " clip-rule="nonzero"/></clipPath><clipPath id="6625f5b20e"><path d="M 177.257812 75.902344 L 186.171875 74.824219 L 187.046875 82.050781 L 178.128906 83.128906 Z M 177.257812 75.902344 " clip-rule="nonzero"/></clipPath><clipPath id="a10a30151a"><path d="M 126 105 L 146 105 L 146 126 L 126 126 Z M 126 105 " clip-rule="nonzero"/></clipPath><clipPath id="07cb1b0fc7"><path d="M 135.15625 101.96875 L 149.515625 114.753906 L 136.726562 129.113281 L 122.371094 116.324219 Z M 135.15625 101.96875 " clip-rule="nonzero"/></clipPath><clipPath id="05fe83b31b"><path d="M 145.488281 114.988281 C 145.792969 120.257812 141.765625 124.78125 136.496094 125.085938 C 131.222656 125.390625 126.703125 121.363281 126.398438 116.09375 C 126.089844 110.820312 130.117188 106.300781 135.390625 105.996094 C 140.660156 105.6875 145.183594 109.714844 145.488281 114.988281 Z M 145.488281 114.988281 " clip-rule="nonzero"/></clipPath><clipPath id="7dcf72f5d3"><path d="M 0 0.59375 L 19.847656 0.59375 L 19.847656 20.503906 L 0 20.503906 Z M 0 0.59375 " clip-rule="nonzero"/></clipPath><clipPath id="fd5f5ec365"><path d="M 9.15625 -3.03125 L 23.515625 9.753906 L 10.726562 24.113281 L -3.628906 11.324219 Z M 9.15625 -3.03125 " clip-rule="nonzero"/></clipPath><clipPath id="9fcba2ef94"><path d="M 19.488281 9.988281 C 19.792969 15.257812 15.765625 19.78125 10.496094 20.085938 C 5.222656 20.390625 0.703125 16.363281 0.398438 11.09375 C 0.0898438 5.820312 4.117188 1.300781 9.390625 0.996094 C 14.660156 0.6875 19.183594 4.714844 19.488281 9.988281 Z M 19.488281 9.988281 " clip-rule="nonzero"/></clipPath><clipPath id="8e4f686235"><rect x="0" width="20" y="0" height="21"/></clipPath><clipPath id="55f399c67e"><path d="M 132 109 L 136 109 L 136 114 L 132 114 Z M 132 109 " clip-rule="nonzero"/></clipPath><clipPath id="5648031052"><path d="M 129.140625 109.792969 L 142.628906 109.347656 L 143.027344 121.332031 L 129.539062 121.78125 Z M 129.140625 109.792969 " clip-rule="nonzero"/></clipPath><clipPath id="8cc2110319"><path d="M 129.140625 109.792969 L 142.628906 109.347656 L 143.027344 121.332031 L 129.539062 121.78125 Z M 129.140625 109.792969 " clip-rule="nonzero"/></clipPath><clipPath id="113c29b5a7"><path d="M 136 109 L 140 109 L 140 114 L 136 114 Z M 136 109 " clip-rule="nonzero"/></clipPath><clipPath id="cfbdfbfbaa"><path d="M 129.140625 109.792969 L 142.628906 109.347656 L 143.027344 121.332031 L 129.539062 121.78125 Z M 129.140625 109.792969 " clip-rule="nonzero"/></clipPath><clipPath id="7ec791c327"><path d="M 129.140625 109.792969 L 142.628906 109.347656 L 143.027344 121.332031 L 129.539062 121.78125 Z M 129.140625 109.792969 " clip-rule="nonzero"/></clipPath><clipPath id="b08f24541a"><path d="M 129 113 L 133 113 L 133 117 L 129 117 Z M 129 113 " clip-rule="nonzero"/></clipPath><clipPath id="6b22edc6c2"><path d="M 129.140625 109.792969 L 142.628906 109.347656 L 143.027344 121.332031 L 129.539062 121.78125 Z M 129.140625 109.792969 " clip-rule="nonzero"/></clipPath><clipPath id="d89e28f8a4"><path d="M 129.140625 109.792969 L 142.628906 109.347656 L 143.027344 121.332031 L 129.539062 121.78125 Z M 129.140625 109.792969 " clip-rule="nonzero"/></clipPath><clipPath id="b3b5524f7d"><path d="M 139 112 L 143 112 L 143 117 L 139 117 Z M 139 112 " clip-rule="nonzero"/></clipPath><clipPath id="44c02eaab8"><path d="M 129.140625 109.792969 L 142.628906 109.347656 L 143.027344 121.332031 L 129.539062 121.78125 Z M 129.140625 109.792969 " clip-rule="nonzero"/></clipPath><clipPath id="5f5e61c8a7"><path d="M 129.140625 109.792969 L 142.628906 109.347656 L 143.027344 121.332031 L 129.539062 121.78125 Z M 129.140625 109.792969 " clip-rule="nonzero"/></clipPath><clipPath id="7c75c28c7d"><path d="M 131 114 L 141 114 L 141 122 L 131 122 Z M 131 114 " clip-rule="nonzero"/></clipPath><clipPath id="4b19f71637"><path d="M 129.140625 109.792969 L 142.628906 109.347656 L 143.027344 121.332031 L 129.539062 121.78125 Z M 129.140625 109.792969 " clip-rule="nonzero"/></clipPath><clipPath id="fda86a0a1b"><path d="M 129.140625 109.792969 L 142.628906 109.347656 L 143.027344 121.332031 L 129.539062 121.78125 Z M 129.140625 109.792969 " clip-rule="nonzero"/></clipPath><clipPath id="767706765d"><path d="M 131.433594 114.363281 L 140.410156 114.066406 L 140.652344 121.339844 L 131.675781 121.640625 Z M 131.433594 114.363281 " clip-rule="nonzero"/></clipPath></defs><g clip-path="url(#9e456d1283)"><path fill="#dddf5f" d="M 206.597656 95.988281 C 206.597656 97.558594 206.558594 99.128906 206.480469 100.695312 C 206.402344 102.265625 206.289062 103.828125 206.132812 105.390625 C 205.980469 106.953125 205.789062 108.511719 205.558594 110.066406 C 205.328125 111.617188 205.058594 113.164062 204.753906 114.707031 C 204.445312 116.246094 204.101562 117.777344 203.722656 119.300781 C 203.339844 120.824219 202.921875 122.335938 202.464844 123.839844 C 202.007812 125.339844 201.515625 126.832031 200.988281 128.308594 C 200.460938 129.789062 199.894531 131.253906 199.292969 132.703125 C 198.691406 134.152344 198.054688 135.589844 197.386719 137.007812 C 196.714844 138.425781 196.007812 139.828125 195.269531 141.214844 C 194.527344 142.597656 193.753906 143.964844 192.945312 145.3125 C 192.140625 146.65625 191.300781 147.984375 190.425781 149.289062 C 189.554688 150.59375 188.652344 151.878906 187.714844 153.140625 C 186.78125 154.402344 185.816406 155.636719 184.820312 156.851562 C 183.824219 158.066406 182.796875 159.253906 181.742188 160.417969 C 180.6875 161.582031 179.605469 162.71875 178.496094 163.828125 C 177.386719 164.9375 176.25 166.019531 175.085938 167.074219 C 173.921875 168.128906 172.734375 169.15625 171.519531 170.152344 C 170.304688 171.148438 169.070312 172.113281 167.808594 173.046875 C 166.546875 173.984375 165.261719 174.886719 163.957031 175.757812 C 162.652344 176.632812 161.328125 177.472656 159.980469 178.277344 C 158.632812 179.085938 157.265625 179.859375 155.882812 180.597656 C 154.496094 181.339844 153.09375 182.046875 151.675781 182.714844 C 150.257812 183.386719 148.820312 184.023438 147.371094 184.625 C 145.921875 185.226562 144.457031 185.789062 142.976562 186.320312 C 141.5 186.847656 140.007812 187.339844 138.507812 187.796875 C 137.003906 188.253906 135.492188 188.671875 133.96875 189.050781 C 132.445312 189.433594 130.914062 189.777344 129.375 190.085938 C 127.832031 190.390625 126.289062 190.660156 124.734375 190.890625 C 123.179688 191.121094 121.625 191.3125 120.058594 191.464844 C 118.496094 191.621094 116.933594 191.734375 115.363281 191.8125 C 113.796875 191.890625 112.226562 191.929688 110.65625 191.929688 C 109.085938 191.929688 107.515625 191.890625 105.949219 191.8125 C 104.382812 191.734375 102.816406 191.621094 101.253906 191.464844 C 99.691406 191.3125 98.132812 191.121094 96.578125 190.890625 C 95.027344 190.660156 93.480469 190.390625 91.941406 190.085938 C 90.398438 189.777344 88.867188 189.433594 87.34375 189.054688 C 85.820312 188.671875 84.308594 188.253906 82.808594 187.796875 C 81.304688 187.339844 79.8125 186.847656 78.335938 186.320312 C 76.855469 185.789062 75.394531 185.226562 73.941406 184.625 C 72.492188 184.023438 71.054688 183.386719 69.636719 182.714844 C 68.21875 182.046875 66.816406 181.339844 65.429688 180.597656 C 64.046875 179.859375 62.679688 179.085938 61.332031 178.277344 C 59.988281 177.472656 58.660156 176.632812 57.355469 175.757812 C 56.050781 174.886719 54.765625 173.984375 53.503906 173.046875 C 52.246094 172.113281 51.007812 171.148438 49.792969 170.152344 C 48.578125 169.15625 47.390625 168.128906 46.226562 167.074219 C 45.0625 166.019531 43.925781 164.9375 42.816406 163.828125 C 41.707031 162.71875 40.625 161.582031 39.570312 160.417969 C 38.515625 159.253906 37.492188 158.066406 36.496094 156.851562 C 35.5 155.636719 34.53125 154.402344 33.597656 153.140625 C 32.660156 151.878906 31.757812 150.59375 30.886719 149.289062 C 30.011719 147.984375 29.171875 146.65625 28.367188 145.3125 C 27.558594 143.964844 26.785156 142.597656 26.046875 141.214844 C 25.304688 139.828125 24.597656 138.425781 23.929688 137.007812 C 23.257812 135.589844 22.621094 134.152344 22.019531 132.703125 C 21.417969 131.253906 20.855469 129.789062 20.324219 128.308594 C 19.796875 126.832031 19.304688 125.339844 18.847656 123.839844 C 18.390625 122.335938 17.972656 120.824219 17.59375 119.300781 C 17.210938 117.777344 16.867188 116.246094 16.558594 114.707031 C 16.253906 113.164062 15.984375 111.617188 15.753906 110.066406 C 15.523438 108.511719 15.332031 106.953125 15.179688 105.390625 C 15.023438 103.828125 14.910156 102.265625 14.832031 100.695312 C 14.753906 99.128906 14.71875 97.558594 14.71875 95.988281 C 14.71875 94.417969 14.753906 92.847656 14.832031 91.28125 C 14.910156 89.710938 15.023438 88.148438 15.179688 86.585938 C 15.332031 85.023438 15.523438 83.464844 15.753906 81.910156 C 15.984375 80.359375 16.253906 78.8125 16.558594 77.269531 C 16.867188 75.730469 17.210938 74.199219 17.59375 72.675781 C 17.972656 71.152344 18.390625 69.640625 18.847656 68.136719 C 19.304688 66.636719 19.796875 65.144531 20.324219 63.667969 C 20.855469 62.1875 21.417969 60.722656 22.019531 59.273438 C 22.621094 57.824219 23.257812 56.386719 23.929688 54.96875 C 24.597656 53.550781 25.304688 52.148438 26.046875 50.761719 C 26.785156 49.378906 27.558594 48.011719 28.367188 46.664062 C 29.171875 45.320312 30.011719 43.992188 30.886719 42.6875 C 31.757812 41.382812 32.660156 40.097656 33.597656 38.835938 C 34.53125 37.574219 35.5 36.339844 36.496094 35.125 C 37.492188 33.910156 38.515625 32.722656 39.570312 31.558594 C 40.625 30.394531 41.707031 29.257812 42.816406 28.148438 C 43.925781 27.039062 45.0625 25.957031 46.226562 24.902344 C 47.390625 23.847656 48.578125 22.820312 49.792969 21.824219 C 51.007812 20.828125 52.246094 19.863281 53.503906 18.929688 C 54.765625 17.992188 56.050781 17.089844 57.355469 16.21875 C 58.660156 15.34375 59.988281 14.503906 61.332031 13.699219 C 62.679688 12.890625 64.046875 12.117188 65.429688 11.378906 C 66.816406 10.636719 68.21875 9.929688 69.636719 9.261719 C 71.054688 8.589844 72.492188 7.953125 73.941406 7.351562 C 75.394531 6.75 76.855469 6.1875 78.335938 5.65625 C 79.8125 5.128906 81.304688 4.636719 82.808594 4.179688 C 84.308594 3.722656 85.820312 3.304688 87.34375 2.921875 C 88.867188 2.542969 90.398438 2.199219 91.941406 1.890625 C 93.480469 1.585938 95.027344 1.316406 96.578125 1.085938 C 98.132812 0.855469 99.691406 0.664062 101.253906 0.511719 C 102.816406 0.355469 104.382812 0.242188 105.949219 0.164062 C 107.515625 0.0859375 109.085938 0.046875 110.65625 0.046875 C 112.226562 0.046875 113.796875 0.0859375 115.363281 0.164062 C 116.933594 0.242188 118.496094 0.355469 120.058594 0.511719 C 121.625 0.664062 123.179688 0.855469 124.734375 1.085938 C 126.289062 1.316406 127.832031 1.585938 129.375 1.890625 C 130.914062 2.199219 132.445312 2.542969 133.96875 2.921875 C 135.492188 3.304688 137.003906 3.722656 138.507812 4.179688 C 140.007812 4.636719 141.5 5.128906 142.976562 5.65625 C 144.457031 6.1875 145.921875 6.75 147.371094 7.351562 C 148.820312 7.953125 150.257812 8.589844 151.675781 9.261719 C 153.09375 9.929688 154.496094 10.636719 155.882812 11.378906 C 157.265625 12.117188 158.632812 12.890625 159.980469 13.699219 C 161.328125 14.503906 162.652344 15.34375 163.957031 16.21875 C 165.261719 17.089844 166.546875 17.992188 167.808594 18.929688 C 169.070312 19.863281 170.304688 20.828125 171.519531 21.824219 C 172.734375 22.820312 173.921875 23.847656 175.085938 24.902344 C 176.25 25.957031 177.386719 27.039062 178.496094 28.148438 C 179.605469 29.257812 180.6875 30.394531 181.742188 31.558594 C 182.796875 32.722656 183.824219 33.910156 184.820312 35.125 C 185.816406 36.339844 186.78125 37.574219 187.714844 38.835938 C 188.652344 40.097656 189.554688 41.382812 190.425781 42.6875 C 191.300781 43.992188 192.140625 45.320312 192.945312 46.664062 C 193.753906 48.011719 194.527344 49.378906 195.269531 50.761719 C 196.007812 52.148438 196.714844 53.550781 197.386719 54.96875 C 198.054688 56.386719 198.691406 57.824219 199.292969 59.273438 C 199.894531 60.722656 200.460938 62.1875 200.988281 63.667969 C 201.515625 65.144531 202.007812 66.636719 202.464844 68.136719 C 202.921875 69.640625 203.339844 71.152344 203.722656 72.675781 C 204.101562 74.199219 204.445312 75.730469 204.753906 77.269531 C 205.058594 78.8125 205.328125 80.359375 205.558594 81.910156 C 205.789062 83.464844 205.980469 85.023438 206.132812 86.585938 C 206.289062 88.148438 206.402344 89.710938 206.480469 91.28125 C 206.558594 92.847656 206.597656 94.417969 206.597656 95.988281 Z M 206.597656 95.988281 " fill-opacity="1" fill-rule="nonzero"/></g><g transform="matrix(1, 0, 0, 1, 48, 36)"><g clip-path="url(#4fbd2b8a47)"><g fill="#291d11" fill-opacity="1"><g transform="translate(5.275488, 61.635991)"><g><path d="M 2.765625 -26.015625 L 14.484375 -27.15625 L 22.015625 -9 C 22.378906 -8.21875 22.703125 -7.648438 22.984375 -7.296875 C 23.265625 -6.941406 23.597656 -6.726562 23.984375 -6.65625 C 24.367188 -6.59375 24.914062 -6.597656 25.625 -6.671875 L 26.03125 -2.53125 L 14.734375 -1.4375 L 14.328125 -5.578125 C 15.003906 -5.640625 15.476562 -5.734375 15.75 -5.859375 C 16.019531 -5.992188 16.140625 -6.234375 16.109375 -6.578125 C 16.066406 -6.984375 15.84375 -7.617188 15.4375 -8.484375 L 14.828125 -10.015625 L 8.96875 -9.453125 L 8.71875 -7.875 C 8.59375 -7.394531 8.5 -6.988281 8.4375 -6.65625 C 8.375 -6.320312 8.351562 -6.046875 8.375 -5.828125 C 8.40625 -5.484375 8.570312 -5.273438 8.875 -5.203125 C 9.1875 -5.128906 9.671875 -5.125 10.328125 -5.1875 L 10.734375 -1.046875 L 0.484375 -0.046875 L 0.078125 -4.1875 C 0.816406 -4.257812 1.359375 -4.363281 1.703125 -4.5 C 2.054688 -4.644531 2.335938 -4.914062 2.546875 -5.3125 C 2.753906 -5.707031 2.96875 -6.328125 3.1875 -7.171875 L 6.109375 -22.09375 C 5.703125 -22.082031 5.253906 -22.054688 4.765625 -22.015625 C 4.273438 -21.984375 3.742188 -21.941406 3.171875 -21.890625 Z M 10.90625 -20.140625 L 9.640625 -13.015625 L 13.5625 -13.40625 L 11.609375 -18.546875 C 11.492188 -18.859375 11.378906 -19.148438 11.265625 -19.421875 C 11.148438 -19.691406 11.03125 -19.929688 10.90625 -20.140625 Z M 10.90625 -20.140625 "/></g></g></g><g fill="#291d11" fill-opacity="1"><g transform="translate(30.006031, 59.23108)"><g><path d="M -0.171875 -18.359375 L 5.4375 -18.90625 L 6.671875 -17.1875 C 7.140625 -17.832031 7.765625 -18.410156 8.546875 -18.921875 C 9.335938 -19.441406 10.335938 -19.757812 11.546875 -19.875 C 12.921875 -20.007812 13.976562 -20 14.71875 -19.84375 C 15.46875 -19.6875 15.984375 -19.5 16.265625 -19.28125 C 16.554688 -19.0625 16.703125 -18.953125 16.703125 -18.953125 L 17.296875 -12.84375 L 13.703125 -12.5 C 13.597656 -13.59375 13.296875 -14.382812 12.796875 -14.875 C 12.296875 -15.363281 11.546875 -15.554688 10.546875 -15.453125 C 9.960938 -15.398438 9.457031 -15.253906 9.03125 -15.015625 C 8.601562 -14.773438 8.25 -14.5 7.96875 -14.1875 L 8.71875 -6.53125 C 8.800781 -5.644531 8.976562 -5.097656 9.25 -4.890625 C 9.519531 -4.679688 10.101562 -4.625 11 -4.71875 L 11.34375 -1.109375 L 1.59375 -0.15625 L 1.25 -3.765625 C 2.125 -3.847656 2.664062 -4.015625 2.875 -4.265625 C 3.082031 -4.515625 3.144531 -5.082031 3.0625 -5.96875 L 2.390625 -12.9375 C 2.296875 -13.851562 2.128906 -14.410156 1.890625 -14.609375 C 1.648438 -14.804688 1.078125 -14.863281 0.171875 -14.78125 Z M -0.171875 -18.359375 "/></g></g></g><g fill="#291d11" fill-opacity="1"><g transform="translate(47.612831, 57.518914)"><g><path d="M -0.34375 -18.34375 L 5.328125 -18.890625 L 6.59375 -17.15625 C 7.070312 -17.769531 7.71875 -18.347656 8.53125 -18.890625 C 9.351562 -19.429688 10.410156 -19.765625 11.703125 -19.890625 C 14.003906 -20.117188 15.648438 -19.601562 16.640625 -18.34375 C 17.128906 -18.9375 17.769531 -19.472656 18.5625 -19.953125 C 19.351562 -20.429688 20.363281 -20.734375 21.59375 -20.859375 C 25.28125 -21.210938 27.296875 -19.648438 27.640625 -16.171875 L 28.390625 -8.4375 C 28.472656 -7.550781 28.648438 -7.003906 28.921875 -6.796875 C 29.191406 -6.597656 29.773438 -6.539062 30.671875 -6.625 L 31.015625 -3.015625 L 23.28125 -2.265625 L 22.078125 -14.609375 C 22.015625 -15.253906 21.820312 -15.726562 21.5 -16.03125 C 21.1875 -16.332031 20.679688 -16.445312 19.984375 -16.375 C 19.472656 -16.320312 19.03125 -16.179688 18.65625 -15.953125 C 18.28125 -15.722656 17.96875 -15.472656 17.71875 -15.203125 L 18.46875 -7.46875 C 18.550781 -6.582031 18.726562 -6.035156 19 -5.828125 C 19.269531 -5.628906 19.851562 -5.570312 20.75 -5.65625 L 21.09375 -2.046875 L 13.40625 -1.296875 L 12.203125 -13.640625 C 12.140625 -14.285156 11.941406 -14.757812 11.609375 -15.0625 C 11.273438 -15.363281 10.765625 -15.476562 10.078125 -15.40625 C 9.554688 -15.351562 9.113281 -15.210938 8.75 -14.984375 C 8.394531 -14.753906 8.09375 -14.507812 7.84375 -14.25 L 8.59375 -6.515625 C 8.675781 -5.628906 8.847656 -5.082031 9.109375 -4.875 C 9.367188 -4.664062 9.941406 -4.601562 10.828125 -4.6875 L 11.171875 -1.078125 L 1.421875 -0.140625 L 1.078125 -3.75 C 1.960938 -3.832031 2.515625 -4 2.734375 -4.25 C 2.953125 -4.507812 3.019531 -5.082031 2.9375 -5.96875 L 2.265625 -12.9375 C 2.171875 -13.851562 2 -14.40625 1.75 -14.59375 C 1.5 -14.789062 0.914062 -14.847656 0 -14.765625 Z M -0.34375 -18.34375 "/></g></g></g><g fill="#291d11" fill-opacity="1"><g transform="translate(77.564756, 54.606251)"><g><path d="M 1.421875 -12.34375 L 0.921875 -17.421875 C 0.921875 -17.421875 1.160156 -17.566406 1.640625 -17.859375 C 2.117188 -18.148438 2.867188 -18.457031 3.890625 -18.78125 C 4.921875 -19.113281 6.257812 -19.359375 7.90625 -19.515625 C 10.789062 -19.796875 12.976562 -19.546875 14.46875 -18.765625 C 15.957031 -17.992188 16.800781 -16.597656 17 -14.578125 L 17.703125 -7.328125 C 17.796875 -6.441406 17.972656 -5.890625 18.234375 -5.671875 C 18.503906 -5.460938 19.085938 -5.398438 19.984375 -5.484375 L 20.328125 -1.96875 C 20.328125 -1.96875 20.078125 -1.882812 19.578125 -1.71875 C 19.085938 -1.550781 18.375 -1.421875 17.4375 -1.328125 C 15.175781 -1.109375 13.648438 -1.679688 12.859375 -3.046875 C 12.234375 -2.421875 11.425781 -1.84375 10.4375 -1.3125 C 9.457031 -0.78125 8.253906 -0.441406 6.828125 -0.296875 C 5.109375 -0.128906 3.6875 -0.390625 2.5625 -1.078125 C 1.445312 -1.773438 0.800781 -3.035156 0.625 -4.859375 C 0.414062 -7.015625 1.179688 -8.71875 2.921875 -9.96875 C 4.671875 -11.226562 7.539062 -12.070312 11.53125 -12.5 L 11.46875 -13.171875 C 11.375 -14.117188 11.015625 -14.78125 10.390625 -15.15625 C 9.773438 -15.53125 8.96875 -15.664062 7.96875 -15.5625 C 6.976562 -15.46875 6.226562 -15.195312 5.71875 -14.75 C 5.207031 -14.3125 4.972656 -13.628906 5.015625 -12.703125 Z M 11.84375 -9.34375 C 9.851562 -9.113281 8.390625 -8.75 7.453125 -8.25 C 6.515625 -7.75 6.09375 -7.050781 6.1875 -6.15625 C 6.238281 -5.570312 6.484375 -5.132812 6.921875 -4.84375 C 7.359375 -4.550781 7.925781 -4.441406 8.625 -4.515625 C 9.4375 -4.585938 10.128906 -4.8125 10.703125 -5.1875 C 11.285156 -5.5625 11.757812 -5.957031 12.125 -6.375 Z M 11.84375 -9.34375 "/></g></g></g><g fill="#291d11" fill-opacity="1"><g transform="translate(96.871537, 52.728771)"><g><path d="M -0.171875 -18.359375 L 5.4375 -18.90625 L 6.671875 -17.1875 C 7.140625 -17.832031 7.765625 -18.410156 8.546875 -18.921875 C 9.335938 -19.441406 10.335938 -19.757812 11.546875 -19.875 C 12.921875 -20.007812 13.976562 -20 14.71875 -19.84375 C 15.46875 -19.6875 15.984375 -19.5 16.265625 -19.28125 C 16.554688 -19.0625 16.703125 -18.953125 16.703125 -18.953125 L 17.296875 -12.84375 L 13.703125 -12.5 C 13.597656 -13.59375 13.296875 -14.382812 12.796875 -14.875 C 12.296875 -15.363281 11.546875 -15.554688 10.546875 -15.453125 C 9.960938 -15.398438 9.457031 -15.253906 9.03125 -15.015625 C 8.601562 -14.773438 8.25 -14.5 7.96875 -14.1875 L 8.71875 -6.53125 C 8.800781 -5.644531 8.976562 -5.097656 9.25 -4.890625 C 9.519531 -4.679688 10.101562 -4.625 11 -4.71875 L 11.34375 -1.109375 L 1.59375 -0.15625 L 1.25 -3.765625 C 2.125 -3.847656 2.664062 -4.015625 2.875 -4.265625 C 3.082031 -4.515625 3.144531 -5.082031 3.0625 -5.96875 L 2.390625 -12.9375 C 2.296875 -13.851562 2.128906 -14.410156 1.890625 -14.609375 C 1.648438 -14.804688 1.078125 -14.863281 0.171875 -14.78125 Z M -0.171875 -18.359375 "/></g></g></g><g fill="#291d11" fill-opacity="1"><g transform="translate(114.484076, 51.016047)"><g/></g></g><g fill="#291d11" fill-opacity="1"><g transform="translate(122.174291, 50.268216)"><g/></g></g><g fill="#291d11" fill-opacity="1"><g transform="translate(129.864505, 49.520384)"><g/></g></g><g fill="#291d11" fill-opacity="1"><g transform="translate(137.55472, 48.772552)"><g/></g></g></g></g><g clip-path="url(#f0a63f6d06)"><g clip-path="url(#f43c351359)"><g clip-path="url(#76ce6e6590)"><path fill="#291d11" d="M 167.839844 86.773438 C 167.886719 86.703125 167.992188 86.691406 168.054688 86.753906 C 168.453125 87.175781 169.003906 87.414062 169.589844 87.359375 C 170.667969 87.261719 171.449219 86.21875 171.339844 85.03125 C 171.234375 83.847656 170.804688 83.363281 169.804688 83.007812 C 169.664062 82.957031 168.804688 74.800781 168.917969 74.707031 C 169.585938 74.160156 170.285156 73.527344 170.175781 72.339844 C 170.066406 71.152344 169.105469 70.269531 168.03125 70.371094 C 167.445312 70.425781 166.945312 70.757812 166.628906 71.246094 C 166.582031 71.320312 166.476562 71.328125 166.414062 71.265625 C 166.015625 70.84375 165.464844 70.605469 164.878906 70.660156 C 163.800781 70.757812 163.019531 71.800781 163.128906 72.988281 C 163.238281 74.175781 164.097656 74.863281 164.863281 74.996094 C 165.011719 75.019531 165.773438 83.332031 165.636719 83.390625 C 164.996094 83.660156 164.183594 84.492188 164.292969 85.679688 C 164.402344 86.867188 165.363281 87.75 166.4375 87.652344 C 167.027344 87.597656 167.523438 87.261719 167.839844 86.773438 " fill-opacity="1" fill-rule="nonzero"/><path fill="#291d11" d="M 164.546875 85.65625 C 164.445312 84.570312 165.203125 83.847656 165.734375 83.625 C 165.925781 83.542969 165.949219 83.53125 165.84375 82.035156 C 165.792969 81.265625 165.707031 80.234375 165.605469 79.136719 C 165.507812 78.046875 165.402344 77.027344 165.316406 76.273438 C 165.144531 74.785156 165.117188 74.78125 164.90625 74.746094 C 164.238281 74.632812 163.476562 74.023438 163.378906 72.964844 C 163.285156 71.917969 163.964844 70.996094 164.902344 70.910156 C 165.386719 70.867188 165.871094 71.058594 166.234375 71.4375 C 166.316406 71.527344 166.429688 71.570312 166.550781 71.558594 C 166.667969 71.546875 166.777344 71.484375 166.839844 71.382812 C 167.125 70.945312 167.566406 70.667969 168.054688 70.621094 C 168.988281 70.535156 169.828125 71.316406 169.925781 72.363281 C 170.019531 73.386719 169.453125 73.941406 168.757812 74.511719 C 168.628906 74.617188 168.605469 74.636719 168.785156 76.597656 C 168.898438 77.8125 169.066406 79.429688 169.21875 80.722656 C 169.503906 83.167969 169.535156 83.179688 169.71875 83.246094 C 170.671875 83.585938 170.992188 84.007812 171.089844 85.054688 C 171.1875 86.101562 170.503906 87.023438 169.570312 87.109375 C 169.082031 87.152344 168.597656 86.960938 168.238281 86.582031 C 168.15625 86.496094 168.039062 86.453125 167.917969 86.460938 C 167.800781 86.472656 167.695312 86.535156 167.628906 86.636719 C 167.34375 87.078125 166.902344 87.355469 166.414062 87.398438 C 165.480469 87.484375 164.640625 86.703125 164.546875 85.65625 " fill-opacity="1" fill-rule="nonzero"/></g></g></g><g clip-path="url(#3347e66840)"><g clip-path="url(#07ba69fcc0)"><g transform="matrix(1, 0, 0, 1, 162, 62)"><g clip-path="url(#7d4f91b10e)"><g clip-path="url(#3c5b16bc06)"><g clip-path="url(#27c760c4fb)"><path fill="#291d11" d="M 0.929688 0.492188 L 7.390625 0.492188 L 7.390625 6.953125 L 0.929688 6.953125 Z M 0.929688 0.492188 " fill-opacity="1" fill-rule="nonzero"/></g></g></g></g></g></g><g clip-path="url(#9b2c7c8b29)"><g clip-path="url(#c56fad9113)"><g clip-path="url(#399aa1db1f)"><g transform="matrix(1, 0, 0, 1, 172, 67)"><g clip-path="url(#3922b72afa)"><g clip-path="url(#80a1af014c)"><g clip-path="url(#ba17fa19c1)"><g clip-path="url(#620ea2f304)"><path fill="#291d11" d="M 7.089844 -9.242188 L 28.773438 6.921875 L 12.609375 28.601562 L -9.074219 12.441406 Z M 7.089844 -9.242188 " fill-opacity="1" fill-rule="nonzero"/></g></g></g></g></g></g></g></g><g transform="matrix(1, 0, 0, 1, 33, 77)"><g clip-path="url(#e3d55da80e)"><g fill="#291d11" fill-opacity="1"><g transform="translate(0.453869, 47.697098)"><g><path d="M 1.546875 -25.625 L 11.671875 -25.625 L 16.75 -10.203125 L 21.796875 -25.625 L 31.8125 -25.625 L 31.8125 -21.46875 C 30.914062 -21.46875 30.34375 -21.347656 30.09375 -21.109375 C 29.851562 -20.867188 29.734375 -20.300781 29.734375 -19.40625 L 29.734375 -6.21875 C 29.734375 -5.320312 29.851562 -4.753906 30.09375 -4.515625 C 30.34375 -4.273438 30.914062 -4.15625 31.8125 -4.15625 L 31.8125 0 L 21.46875 0 L 21.46875 -4.15625 C 22.363281 -4.15625 22.925781 -4.273438 23.15625 -4.515625 C 23.394531 -4.753906 23.515625 -5.320312 23.515625 -6.21875 L 23.515625 -16.875 L 18.0625 0 L 13.578125 0 L 8.09375 -16.953125 L 8.09375 -6.21875 C 8.09375 -5.320312 8.210938 -4.753906 8.453125 -4.515625 C 8.703125 -4.273438 9.273438 -4.15625 10.171875 -4.15625 L 10.171875 0 L 1.546875 0 L 1.546875 -4.15625 C 2.441406 -4.15625 3.007812 -4.273438 3.25 -4.515625 C 3.5 -4.753906 3.625 -5.320312 3.625 -6.21875 L 3.625 -21.390625 C 3.351562 -21.421875 3.039062 -21.441406 2.6875 -21.453125 C 2.332031 -21.460938 1.953125 -21.46875 1.546875 -21.46875 Z M 1.546875 -25.625 "/></g></g></g><g fill="#291d11" fill-opacity="1"><g transform="translate(34.002925, 47.697098)"><g><path d="M 2.609375 -12.15625 L 2.609375 -17.25 C 2.609375 -17.25 2.859375 -17.367188 3.359375 -17.609375 C 3.859375 -17.859375 4.632812 -18.097656 5.6875 -18.328125 C 6.75 -18.554688 8.109375 -18.671875 9.765625 -18.671875 C 12.660156 -18.671875 14.8125 -18.207031 16.21875 -17.28125 C 17.632812 -16.363281 18.34375 -14.890625 18.34375 -12.859375 L 18.34375 -5.578125 C 18.34375 -4.679688 18.460938 -4.113281 18.703125 -3.875 C 18.953125 -3.644531 19.523438 -3.53125 20.421875 -3.53125 L 20.421875 0 C 20.421875 0 20.164062 0.0546875 19.65625 0.171875 C 19.15625 0.296875 18.429688 0.359375 17.484375 0.359375 C 15.210938 0.359375 13.75 -0.359375 13.09375 -1.796875 C 12.414062 -1.222656 11.5625 -0.71875 10.53125 -0.28125 C 9.5 0.144531 8.265625 0.359375 6.828125 0.359375 C 5.097656 0.359375 3.707031 -0.0351562 2.65625 -0.828125 C 1.613281 -1.628906 1.09375 -2.941406 1.09375 -4.765625 C 1.09375 -6.929688 2.019531 -8.554688 3.875 -9.640625 C 5.738281 -10.722656 8.675781 -11.28125 12.6875 -11.3125 L 12.6875 -12 C 12.6875 -12.945312 12.394531 -13.632812 11.8125 -14.0625 C 11.226562 -14.5 10.4375 -14.71875 9.4375 -14.71875 C 8.4375 -14.71875 7.660156 -14.519531 7.109375 -14.125 C 6.566406 -13.738281 6.269531 -13.082031 6.21875 -12.15625 Z M 12.6875 -8.140625 C 10.6875 -8.109375 9.195312 -7.890625 8.21875 -7.484375 C 7.238281 -7.078125 6.75 -6.425781 6.75 -5.53125 C 6.75 -4.9375 6.953125 -4.472656 7.359375 -4.140625 C 7.765625 -3.816406 8.320312 -3.65625 9.03125 -3.65625 C 9.84375 -3.65625 10.550781 -3.8125 11.15625 -4.125 C 11.769531 -4.4375 12.28125 -4.785156 12.6875 -5.171875 Z M 12.6875 -8.140625 "/></g></g></g><g fill="#291d11" fill-opacity="1"><g transform="translate(55.271002, 47.697098)"><g><path d="M 1.140625 -1.140625 L 1.140625 -6.1875 L 4.765625 -6.1875 C 5.054688 -5.375 5.566406 -4.75 6.296875 -4.3125 C 7.035156 -3.875 8.023438 -3.65625 9.265625 -3.65625 C 10.140625 -3.65625 10.757812 -3.796875 11.125 -4.078125 C 11.488281 -4.367188 11.671875 -4.71875 11.671875 -5.125 C 11.671875 -5.53125 11.554688 -5.859375 11.328125 -6.109375 C 11.097656 -6.367188 10.65625 -6.582031 10 -6.75 L 6.390625 -7.734375 C 4.648438 -8.191406 3.335938 -8.882812 2.453125 -9.8125 C 1.578125 -10.75 1.140625 -11.96875 1.140625 -13.46875 C 1.140625 -15.039062 1.722656 -16.300781 2.890625 -17.25 C 4.054688 -18.195312 6.046875 -18.671875 8.859375 -18.671875 C 10.734375 -18.671875 12.234375 -18.546875 13.359375 -18.296875 C 14.484375 -18.054688 15.296875 -17.804688 15.796875 -17.546875 C 16.296875 -17.285156 16.546875 -17.15625 16.546875 -17.15625 L 16.546875 -12.125 L 13.015625 -12.125 C 12.523438 -13.800781 11.140625 -14.640625 8.859375 -14.640625 C 7.503906 -14.640625 6.828125 -14.148438 6.828125 -13.171875 C 6.828125 -12.410156 7.316406 -11.882812 8.296875 -11.59375 L 12.03125 -10.578125 C 14.125 -10.003906 15.53125 -9.273438 16.25 -8.390625 C 16.96875 -7.515625 17.328125 -6.359375 17.328125 -4.921875 C 17.328125 -3.210938 16.6875 -1.90625 15.40625 -1 C 14.132812 -0.09375 12.085938 0.359375 9.265625 0.359375 C 7.398438 0.359375 5.863281 0.238281 4.65625 0 C 3.445312 -0.238281 2.554688 -0.488281 1.984375 -0.75 C 1.421875 -1.007812 1.140625 -1.140625 1.140625 -1.140625 Z M 1.140625 -1.140625 "/></g></g></g><g fill="#291d11" fill-opacity="1"><g transform="translate(73.855156, 47.697098)"><g><path d="M 1.140625 -9.15625 C 1.140625 -12.507812 1.90625 -14.929688 3.4375 -16.421875 C 4.96875 -17.921875 7.359375 -18.671875 10.609375 -18.671875 C 12.347656 -18.671875 13.769531 -18.546875 14.875 -18.296875 C 15.988281 -18.054688 16.8125 -17.8125 17.34375 -17.5625 C 17.875 -17.320312 18.140625 -17.203125 18.140625 -17.203125 L 18.140625 -11.953125 L 14.515625 -11.953125 C 14.429688 -13.554688 13.238281 -14.359375 10.9375 -14.359375 C 9.613281 -14.359375 8.59375 -13.976562 7.875 -13.21875 C 7.15625 -12.457031 6.796875 -11.101562 6.796875 -9.15625 C 6.796875 -7.195312 7.15625 -5.835938 7.875 -5.078125 C 8.59375 -4.316406 9.613281 -3.9375 10.9375 -3.9375 C 13.238281 -3.9375 14.429688 -4.789062 14.515625 -6.5 L 18.140625 -6.5 L 18.140625 -1.09375 C 18.140625 -1.09375 17.875 -0.96875 17.34375 -0.71875 C 16.8125 -0.476562 15.988281 -0.238281 14.875 0 C 13.769531 0.238281 12.347656 0.359375 10.609375 0.359375 C 7.359375 0.359375 4.96875 -0.382812 3.4375 -1.875 C 1.90625 -3.363281 1.140625 -5.789062 1.140625 -9.15625 Z M 1.140625 -9.15625 "/></g></g></g><g fill="#291d11" fill-opacity="1"><g transform="translate(93.218519, 47.697098)"><g/></g></g><g fill="#291d11" fill-opacity="1"><g transform="translate(102.815597, 47.697098)"><g/></g></g><g fill="#291d11" fill-opacity="1"><g transform="translate(112.413688, 47.697098)"><g><path d="M 0.484375 -13.984375 L 0.484375 -18.296875 L 3.015625 -18.296875 L 4.390625 -23.796875 L 8.703125 -23.796875 L 8.703125 -18.296875 L 12.453125 -18.296875 L 12.453125 -13.984375 L 8.703125 -13.984375 L 8.703125 -6.1875 C 8.703125 -4.71875 9.328125 -3.984375 10.578125 -3.984375 C 11.203125 -3.984375 11.671875 -4.160156 11.984375 -4.515625 C 12.296875 -4.867188 12.453125 -5.503906 12.453125 -6.421875 L 16.0625 -6.421875 L 16.0625 -0.609375 C 16.0625 -0.609375 15.539062 -0.453125 14.5 -0.140625 C 13.457031 0.171875 11.957031 0.328125 10 0.328125 C 7.613281 0.328125 5.851562 -0.234375 4.71875 -1.359375 C 3.582031 -2.484375 3.015625 -4.117188 3.015625 -6.265625 L 3.015625 -13.984375 Z M 0.484375 -13.984375 "/></g></g></g><g fill="#291d11" fill-opacity="1"><g transform="translate(129.086562, 47.697098)"><g><path d="M 2.609375 -12.15625 L 2.609375 -17.25 C 2.609375 -17.25 2.859375 -17.367188 3.359375 -17.609375 C 3.859375 -17.859375 4.632812 -18.097656 5.6875 -18.328125 C 6.75 -18.554688 8.109375 -18.671875 9.765625 -18.671875 C 12.660156 -18.671875 14.8125 -18.207031 16.21875 -17.28125 C 17.632812 -16.363281 18.34375 -14.890625 18.34375 -12.859375 L 18.34375 -5.578125 C 18.34375 -4.679688 18.460938 -4.113281 18.703125 -3.875 C 18.953125 -3.644531 19.523438 -3.53125 20.421875 -3.53125 L 20.421875 0 C 20.421875 0 20.164062 0.0546875 19.65625 0.171875 C 19.15625 0.296875 18.429688 0.359375 17.484375 0.359375 C 15.210938 0.359375 13.75 -0.359375 13.09375 -1.796875 C 12.414062 -1.222656 11.5625 -0.71875 10.53125 -0.28125 C 9.5 0.144531 8.265625 0.359375 6.828125 0.359375 C 5.097656 0.359375 3.707031 -0.0351562 2.65625 -0.828125 C 1.613281 -1.628906 1.09375 -2.941406 1.09375 -4.765625 C 1.09375 -6.929688 2.019531 -8.554688 3.875 -9.640625 C 5.738281 -10.722656 8.675781 -11.28125 12.6875 -11.3125 L 12.6875 -12 C 12.6875 -12.945312 12.394531 -13.632812 11.8125 -14.0625 C 11.226562 -14.5 10.4375 -14.71875 9.4375 -14.71875 C 8.4375 -14.71875 7.660156 -14.519531 7.109375 -14.125 C 6.566406 -13.738281 6.269531 -13.082031 6.21875 -12.15625 Z M 12.6875 -8.140625 C 10.6875 -8.109375 9.195312 -7.890625 8.21875 -7.484375 C 7.238281 -7.078125 6.75 -6.425781 6.75 -5.53125 C 6.75 -4.9375 6.953125 -4.472656 7.359375 -4.140625 C 7.765625 -3.816406 8.320312 -3.65625 9.03125 -3.65625 C 9.84375 -3.65625 10.550781 -3.8125 11.15625 -4.125 C 11.769531 -4.4375 12.28125 -4.785156 12.6875 -5.171875 Z M 12.6875 -8.140625 "/></g></g></g></g></g><g transform="matrix(1, 0, 0, 1, 134, 91)"><g clip-path="url(#b3c33c4df1)"><g clip-path="url(#366ef3af2a)"><g fill="#291d11" fill-opacity="1"><g transform="translate(1.525499, 12.102862)"><g><path d="M 8.578125 -2.828125 C 8.691406 -2.753906 8.71875 -2.671875 8.65625 -2.578125 C 8.582031 -2.429688 8.460938 -2.21875 8.296875 -1.9375 C 8.128906 -1.65625 7.910156 -1.367188 7.640625 -1.078125 C 7.378906 -0.785156 7.070312 -0.535156 6.71875 -0.328125 C 6.363281 -0.117188 5.957031 -0.015625 5.5 -0.015625 C 5.019531 -0.015625 4.59375 -0.15625 4.21875 -0.4375 C 3.84375 -0.71875 3.5625 -1.085938 3.375 -1.546875 C 3.113281 -1.160156 2.804688 -0.804688 2.453125 -0.484375 C 2.097656 -0.160156 1.703125 0 1.265625 0 C 0.953125 -0.0078125 0.648438 -0.0859375 0.359375 -0.234375 C 0.0664062 -0.390625 -0.15625 -0.628906 -0.3125 -0.953125 C -0.476562 -1.285156 -0.519531 -1.71875 -0.4375 -2.25 C -0.332031 -2.851562 -0.160156 -3.320312 0.078125 -3.65625 C 0.328125 -4 0.613281 -4.242188 0.9375 -4.390625 C 1.269531 -4.546875 1.609375 -4.617188 1.953125 -4.609375 C 2.191406 -4.597656 2.40625 -4.546875 2.59375 -4.453125 C 2.582031 -4.734375 2.585938 -5.023438 2.609375 -5.328125 C 2.640625 -5.640625 2.675781 -5.96875 2.71875 -6.3125 C 2.882812 -7.414062 3.132812 -8.300781 3.46875 -8.96875 C 3.800781 -9.632812 4.175781 -10.117188 4.59375 -10.421875 C 5.007812 -10.722656 5.421875 -10.875 5.828125 -10.875 C 6.242188 -10.875 6.609375 -10.753906 6.921875 -10.515625 C 7.109375 -10.390625 7.226562 -10.160156 7.28125 -9.828125 C 7.34375 -9.492188 7.300781 -9.019531 7.15625 -8.40625 C 7.007812 -7.800781 6.703125 -7.039062 6.234375 -6.125 C 5.765625 -5.207031 5.082031 -4.097656 4.1875 -2.796875 C 4.363281 -2.296875 4.53125 -1.878906 4.6875 -1.546875 C 4.851562 -1.222656 5.128906 -1.0625 5.515625 -1.0625 C 5.753906 -1.0625 5.988281 -1.140625 6.21875 -1.296875 C 6.457031 -1.460938 6.675781 -1.660156 6.875 -1.890625 C 7.082031 -2.128906 7.257812 -2.363281 7.40625 -2.59375 C 7.5625 -2.820312 7.675781 -3.003906 7.75 -3.140625 C 7.769531 -3.179688 7.804688 -3.207031 7.859375 -3.21875 C 7.921875 -3.226562 7.972656 -3.222656 8.015625 -3.203125 Z M 3.921875 -6.234375 C 3.867188 -5.953125 3.835938 -5.65625 3.828125 -5.34375 C 3.816406 -5.03125 3.820312 -4.71875 3.84375 -4.40625 C 4.832031 -6.164062 5.507812 -7.488281 5.875 -8.375 C 6.25 -9.269531 6.34375 -9.785156 6.15625 -9.921875 C 6.082031 -9.972656 5.960938 -9.988281 5.796875 -9.96875 C 5.628906 -9.945312 5.4375 -9.820312 5.21875 -9.59375 C 5.007812 -9.375 4.789062 -9 4.5625 -8.46875 C 4.332031 -7.9375 4.117188 -7.191406 3.921875 -6.234375 Z M 1.3125 -1.0625 C 1.457031 -1.101562 1.679688 -1.273438 1.984375 -1.578125 C 2.285156 -1.878906 2.578125 -2.269531 2.859375 -2.75 C 2.847656 -2.8125 2.832031 -2.867188 2.8125 -2.921875 C 2.800781 -2.972656 2.785156 -3.03125 2.765625 -3.09375 C 2.703125 -3.257812 2.613281 -3.390625 2.5 -3.484375 C 2.394531 -3.585938 2.257812 -3.640625 2.09375 -3.640625 C 1.800781 -3.640625 1.515625 -3.503906 1.234375 -3.234375 C 0.960938 -2.960938 0.769531 -2.539062 0.65625 -1.96875 C 0.582031 -1.582031 0.625 -1.320312 0.78125 -1.1875 C 0.945312 -1.0625 1.125 -1.019531 1.3125 -1.0625 Z M 1.3125 -1.0625 "/></g></g></g></g><g clip-path="url(#0b95980640)"><g fill="#291d11" fill-opacity="1"><g transform="translate(9.410464, 12.102862)"><g><path d="M 3.4375 -1.234375 C 3.519531 -1.203125 3.535156 -1.132812 3.484375 -1.03125 C 3.304688 -0.726562 3.050781 -0.46875 2.71875 -0.25 C 2.394531 -0.03125 2.046875 0.0976562 1.671875 0.140625 C 1.296875 0.191406 0.929688 0.113281 0.578125 -0.09375 C 0.253906 -0.300781 0.00390625 -0.582031 -0.171875 -0.9375 C -0.347656 -1.300781 -0.398438 -1.859375 -0.328125 -2.609375 C -0.265625 -3.203125 -0.0976562 -3.6875 0.171875 -4.0625 C 0.441406 -4.4375 0.757812 -4.703125 1.125 -4.859375 C 1.5 -5.023438 1.851562 -5.09375 2.1875 -5.0625 C 2.4375 -5.050781 2.671875 -4.976562 2.890625 -4.84375 C 3.117188 -4.707031 3.28125 -4.503906 3.375 -4.234375 C 3.476562 -3.960938 3.4375 -3.601562 3.25 -3.15625 C 3.15625 -2.894531 2.96875 -2.640625 2.6875 -2.390625 C 2.40625 -2.148438 2.101562 -1.945312 1.78125 -1.78125 C 1.457031 -1.613281 1.175781 -1.515625 0.9375 -1.484375 C 0.96875 -1.335938 1.019531 -1.207031 1.09375 -1.09375 C 1.175781 -0.976562 1.289062 -0.890625 1.4375 -0.828125 C 1.625 -0.753906 1.84375 -0.785156 2.09375 -0.921875 C 2.34375 -1.054688 2.578125 -1.242188 2.796875 -1.484375 C 2.847656 -1.554688 2.90625 -1.566406 2.96875 -1.515625 Z M 2.421875 -4.109375 C 2.304688 -4.179688 2.132812 -4.171875 1.90625 -4.078125 C 1.675781 -3.992188 1.460938 -3.832031 1.265625 -3.59375 C 1.066406 -3.351562 0.953125 -3.046875 0.921875 -2.671875 C 0.921875 -2.640625 0.914062 -2.609375 0.90625 -2.578125 C 0.90625 -2.546875 0.90625 -2.515625 0.90625 -2.484375 C 1.300781 -2.617188 1.632812 -2.796875 1.90625 -3.015625 C 2.1875 -3.242188 2.375 -3.460938 2.46875 -3.671875 C 2.5625 -3.878906 2.546875 -4.023438 2.421875 -4.109375 Z M 2.421875 -4.109375 "/></g></g></g></g></g></g><g transform="matrix(1, 0, 0, 1, 36, 67)"><g clip-path="url(#83bfd2c405)"><g fill="#291d11" fill-opacity="1"><g transform="translate(1.283316, 16.398664)"><g><path d="M 7.71875 -14.21875 C 7.84375 -14.21875 7.90625 -14.140625 7.90625 -13.984375 L 7.734375 -12.875 C 7.710938 -12.769531 7.644531 -12.71875 7.53125 -12.71875 C 7.25 -12.71875 6.78125 -12.710938 6.125 -12.703125 C 5.476562 -12.691406 4.675781 -12.679688 3.71875 -12.671875 L 3.046875 -8.3125 C 3.648438 -8.257812 4.148438 -8.226562 4.546875 -8.21875 C 4.953125 -8.21875 5.390625 -8.21875 5.859375 -8.21875 C 6.003906 -8.21875 6.0625 -8.140625 6.03125 -7.984375 L 5.875 -6.90625 C 5.84375 -6.78125 5.773438 -6.71875 5.671875 -6.71875 C 5.429688 -6.738281 5.09375 -6.738281 4.65625 -6.71875 C 4.21875 -6.707031 3.601562 -6.707031 2.8125 -6.71875 L 2.140625 -1.6875 C 2.910156 -1.707031 3.675781 -1.703125 4.4375 -1.671875 C 5.195312 -1.648438 5.8125 -1.640625 6.28125 -1.640625 C 6.4375 -1.640625 6.5 -1.570312 6.46875 -1.4375 L 6.3125 -0.3125 C 6.28125 -0.195312 6.210938 -0.140625 6.109375 -0.140625 C 5.984375 -0.140625 5.726562 -0.132812 5.34375 -0.125 C 4.957031 -0.113281 4.519531 -0.101562 4.03125 -0.09375 C 3.539062 -0.09375 3.0625 -0.0820312 2.59375 -0.0625 C 2.132812 -0.0507812 1.75 -0.0390625 1.4375 -0.03125 C 1.125 -0.0195312 0.96875 -0.015625 0.96875 -0.015625 C 0.914062 -0.015625 0.84375 -0.0078125 0.75 0 C 0.65625 0 0.601562 0 0.59375 0 C 0.488281 -0.03125 0.390625 -0.0859375 0.296875 -0.171875 C 0.203125 -0.253906 0.148438 -0.359375 0.140625 -0.484375 C 0.140625 -0.535156 0.140625 -0.5625 0.140625 -0.5625 L 0.9375 -6.625 L 1.15625 -8.234375 L 1.703125 -12.34375 C 1.703125 -12.34375 1.71875 -12.425781 1.75 -12.59375 C 1.78125 -12.757812 1.820312 -12.957031 1.875 -13.1875 C 1.925781 -13.425781 1.96875 -13.628906 2 -13.796875 C 2.03125 -14.023438 2.164062 -14.15625 2.40625 -14.1875 C 2.476562 -14.207031 2.539062 -14.21875 2.59375 -14.21875 C 2.644531 -14.21875 2.679688 -14.21875 2.703125 -14.21875 C 2.867188 -14.226562 3.007812 -14.234375 3.125 -14.234375 C 3.25 -14.234375 3.523438 -14.238281 3.953125 -14.25 C 4.703125 -14.28125 5.429688 -14.28125 6.140625 -14.25 C 6.859375 -14.226562 7.382812 -14.21875 7.71875 -14.21875 Z M 7.71875 -14.21875 "/></g></g></g><g fill="#291d11" fill-opacity="1"><g transform="translate(9.090064, 16.398664)"><g><path d="M 7.25 -3.921875 C 7.363281 -3.835938 7.382812 -3.734375 7.3125 -3.609375 C 7.21875 -3.410156 7.046875 -3.113281 6.796875 -2.71875 C 6.546875 -2.332031 6.234375 -1.929688 5.859375 -1.515625 C 5.484375 -1.097656 5.046875 -0.738281 4.546875 -0.4375 C 4.046875 -0.144531 3.5 0 2.90625 0 C 2.03125 0 1.285156 -0.328125 0.671875 -0.984375 C 0.0664062 -1.640625 -0.335938 -2.601562 -0.546875 -3.875 C -0.753906 -5.15625 -0.71875 -6.722656 -0.4375 -8.578125 C -0.207031 -10.097656 0.109375 -11.304688 0.515625 -12.203125 C 0.929688 -13.097656 1.390625 -13.742188 1.890625 -14.140625 C 2.398438 -14.535156 2.921875 -14.722656 3.453125 -14.703125 C 3.984375 -14.691406 4.488281 -14.519531 4.96875 -14.1875 C 5.132812 -14.082031 5.300781 -13.875 5.46875 -13.5625 C 5.632812 -13.25 5.726562 -12.820312 5.75 -12.28125 C 5.78125 -11.738281 5.660156 -11.0625 5.390625 -10.25 C 5.128906 -9.4375 4.660156 -8.484375 3.984375 -7.390625 C 3.304688 -6.304688 2.34375 -5.050781 1.09375 -3.625 C 1.226562 -2.988281 1.441406 -2.460938 1.734375 -2.046875 C 2.023438 -1.640625 2.421875 -1.4375 2.921875 -1.4375 C 3.222656 -1.4375 3.535156 -1.550781 3.859375 -1.78125 C 4.179688 -2.019531 4.488281 -2.304688 4.78125 -2.640625 C 5.070312 -2.984375 5.332031 -3.316406 5.5625 -3.640625 C 5.789062 -3.960938 5.957031 -4.21875 6.0625 -4.40625 C 6.132812 -4.550781 6.25 -4.582031 6.40625 -4.5 Z M 4.09375 -13.328125 C 3.875 -13.535156 3.597656 -13.546875 3.265625 -13.359375 C 2.929688 -13.179688 2.582031 -12.710938 2.21875 -11.953125 C 1.863281 -11.191406 1.523438 -10.03125 1.203125 -8.46875 C 1.128906 -8.09375 1.066406 -7.679688 1.015625 -7.234375 C 0.972656 -6.785156 0.945312 -6.34375 0.9375 -5.90625 C 1.84375 -7.101562 2.535156 -8.140625 3.015625 -9.015625 C 3.503906 -9.890625 3.835938 -10.628906 4.015625 -11.234375 C 4.203125 -11.835938 4.285156 -12.3125 4.265625 -12.65625 C 4.253906 -13 4.195312 -13.222656 4.09375 -13.328125 Z M 4.09375 -13.328125 "/></g></g></g></g></g><g transform="matrix(1, 0, 0, 1, 148, 86)"><g clip-path="url(#4ddbdeab2d)"><g fill="#291d11" fill-opacity="1"><g transform="translate(2.315117, 11.919824)"><g><path d="M 9.515625 -2.3125 C 9.578125 -2.226562 9.578125 -2.148438 9.515625 -2.078125 C 9.441406 -1.953125 9.296875 -1.769531 9.078125 -1.53125 C 8.867188 -1.300781 8.609375 -1.085938 8.296875 -0.890625 C 7.992188 -0.691406 7.65625 -0.59375 7.28125 -0.59375 C 6.988281 -0.59375 6.78125 -0.65625 6.65625 -0.78125 C 6.53125 -0.90625 6.441406 -1.054688 6.390625 -1.234375 C 6.347656 -1.410156 6.316406 -1.585938 6.296875 -1.765625 C 6.273438 -1.941406 6.234375 -2.09375 6.171875 -2.21875 C 6.109375 -2.34375 5.992188 -2.40625 5.828125 -2.40625 C 5.742188 -2.40625 5.625 -2.320312 5.46875 -2.15625 C 5.320312 -2 5.164062 -1.800781 5 -1.5625 C 4.832031 -1.332031 4.675781 -1.097656 4.53125 -0.859375 C 4.382812 -0.628906 4.269531 -0.441406 4.1875 -0.296875 C 4.175781 -0.265625 4.160156 -0.25 4.140625 -0.25 C 4.085938 -0.238281 3.957031 -0.238281 3.75 -0.25 C 3.550781 -0.269531 3.363281 -0.304688 3.1875 -0.359375 C 3.007812 -0.421875 2.921875 -0.488281 2.921875 -0.5625 C 2.921875 -0.613281 2.9375 -0.734375 2.96875 -0.921875 C 3 -1.117188 3.035156 -1.347656 3.078125 -1.609375 C 3.117188 -1.878906 3.148438 -2.144531 3.171875 -2.40625 C 3.191406 -2.675781 3.191406 -2.898438 3.171875 -3.078125 C 3.148438 -3.265625 3.09375 -3.367188 3 -3.390625 C 2.894531 -3.421875 2.726562 -3.320312 2.5 -3.09375 C 2.28125 -2.863281 2.039062 -2.566406 1.78125 -2.203125 C 1.53125 -1.835938 1.296875 -1.460938 1.078125 -1.078125 C 0.867188 -0.691406 0.71875 -0.351562 0.625 -0.0625 C 0.601562 -0.0078125 0.570312 0.00390625 0.53125 -0.015625 C 0.53125 -0.00390625 0.53125 0 0.53125 0 C 0.53125 0 0.453125 0 0.296875 0 C 0.140625 0 -0.0195312 -0.0078125 -0.1875 -0.03125 C -0.363281 -0.0625 -0.46875 -0.125 -0.5 -0.21875 C -0.46875 -0.675781 -0.414062 -1.160156 -0.34375 -1.671875 C -0.269531 -2.179688 -0.1875 -2.671875 -0.09375 -3.140625 C -0.0078125 -3.617188 0.0546875 -4.023438 0.109375 -4.359375 C 0.191406 -4.753906 0.273438 -4.988281 0.359375 -5.0625 C 0.441406 -5.132812 0.535156 -5.171875 0.640625 -5.171875 C 1.023438 -5.160156 1.257812 -5.128906 1.34375 -5.078125 C 1.4375 -5.035156 1.460938 -4.90625 1.421875 -4.6875 C 1.367188 -4.394531 1.304688 -4.078125 1.234375 -3.734375 C 1.171875 -3.398438 1.109375 -3.070312 1.046875 -2.75 C 1.242188 -3.039062 1.453125 -3.3125 1.671875 -3.5625 C 1.890625 -3.820312 2.128906 -4.023438 2.390625 -4.171875 C 2.660156 -4.328125 2.929688 -4.382812 3.203125 -4.34375 C 3.472656 -4.3125 3.726562 -4.144531 3.96875 -3.84375 C 4.21875 -3.550781 4.316406 -3.070312 4.265625 -2.40625 C 4.253906 -2.375 4.25 -2.335938 4.25 -2.296875 C 4.25 -2.253906 4.25 -2.21875 4.25 -2.1875 C 4.476562 -2.539062 4.738281 -2.863281 5.03125 -3.15625 C 5.320312 -3.445312 5.613281 -3.59375 5.90625 -3.59375 C 6.238281 -3.59375 6.492188 -3.523438 6.671875 -3.390625 C 6.859375 -3.265625 6.988281 -3.109375 7.0625 -2.921875 C 7.132812 -2.734375 7.175781 -2.539062 7.1875 -2.34375 C 7.207031 -2.144531 7.226562 -1.984375 7.25 -1.859375 C 7.28125 -1.734375 7.335938 -1.671875 7.421875 -1.671875 C 7.597656 -1.671875 7.78125 -1.726562 7.96875 -1.84375 C 8.164062 -1.96875 8.347656 -2.109375 8.515625 -2.265625 C 8.691406 -2.421875 8.832031 -2.554688 8.9375 -2.671875 C 8.96875 -2.710938 9.007812 -2.734375 9.0625 -2.734375 C 9.125 -2.734375 9.175781 -2.707031 9.21875 -2.65625 Z M 9.515625 -2.3125 "/></g></g></g><g fill="#291d11" fill-opacity="1"><g transform="translate(11.285931, 11.919824)"><g><path d="M 0.3125 -4.28125 C 0.5 -4.300781 0.703125 -4.300781 0.921875 -4.28125 C 1.140625 -4.269531 1.253906 -4.203125 1.265625 -4.078125 C 1.265625 -4.015625 1.25 -3.84375 1.21875 -3.5625 C 1.1875 -3.28125 1.140625 -2.941406 1.078125 -2.546875 C 1.023438 -2.148438 0.96875 -1.757812 0.90625 -1.375 C 0.84375 -1 0.785156 -0.679688 0.734375 -0.421875 C 0.691406 -0.160156 0.660156 -0.0234375 0.640625 -0.015625 C 0.585938 -0.00390625 0.476562 0 0.3125 0 C 0.15625 0 0.0078125 -0.0234375 -0.125 -0.078125 C -0.257812 -0.128906 -0.328125 -0.203125 -0.328125 -0.296875 C -0.328125 -0.398438 -0.316406 -0.578125 -0.296875 -0.828125 C -0.273438 -1.085938 -0.25 -1.378906 -0.21875 -1.703125 C -0.195312 -2.023438 -0.171875 -2.335938 -0.140625 -2.640625 C -0.109375 -2.941406 -0.0820312 -3.191406 -0.0625 -3.390625 C -0.0507812 -3.585938 -0.046875 -3.6875 -0.046875 -3.6875 C -0.046875 -3.6875 -0.0390625 -3.726562 -0.03125 -3.8125 C -0.0195312 -3.90625 0.0078125 -4.003906 0.0625 -4.109375 C 0.125 -4.210938 0.207031 -4.269531 0.3125 -4.28125 Z M 1.140625 -5.03125 C 1.023438 -4.96875 0.882812 -4.945312 0.71875 -4.96875 C 0.5625 -4.988281 0.425781 -5.050781 0.3125 -5.15625 C 0.195312 -5.269531 0.144531 -5.425781 0.15625 -5.625 C 0.164062 -5.71875 0.191406 -5.820312 0.234375 -5.9375 C 0.285156 -6.050781 0.375 -6.140625 0.5 -6.203125 C 0.632812 -6.265625 0.8125 -6.25 1.03125 -6.15625 C 1.238281 -6.09375 1.359375 -5.976562 1.390625 -5.8125 C 1.421875 -5.644531 1.40625 -5.484375 1.34375 -5.328125 C 1.28125 -5.171875 1.210938 -5.070312 1.140625 -5.03125 Z M 1.140625 -5.03125 "/></g></g></g></g></g><g clip-path="url(#f2c5041d71)"><g clip-path="url(#5c7096fce1)"><g clip-path="url(#c2c1e8526c)"><path fill="#dddf5f" d="M 179.746094 75.300781 C 179.832031 75.289062 179.914062 75.269531 180 75.238281 C 180.828125 74.941406 181.21875 73.769531 180.871094 72.617188 C 180.5625 71.585938 179.761719 70.921875 179 71.011719 C 178.917969 71.023438 178.832031 71.042969 178.746094 71.074219 C 177.917969 71.371094 177.527344 72.542969 177.875 73.695312 C 178.183594 74.726562 178.984375 75.390625 179.746094 75.300781 " fill-opacity="1" fill-rule="nonzero"/></g></g></g><g clip-path="url(#ee5c388320)"><g clip-path="url(#fb647d0e4d)"><g clip-path="url(#588f1db449)"><path fill="#dddf5f" d="M 183.324219 74.835938 C 183.414062 74.847656 183.5 74.84375 183.585938 74.835938 C 184.347656 74.742188 184.964844 73.910156 185.019531 72.832031 C 185.082031 71.628906 184.425781 70.585938 183.550781 70.492188 C 183.460938 70.484375 183.375 70.484375 183.289062 70.496094 C 182.527344 70.585938 181.910156 71.421875 181.855469 72.5 C 181.792969 73.699219 182.449219 74.746094 183.324219 74.835938 " fill-opacity="1" fill-rule="nonzero"/></g></g></g><g clip-path="url(#220fc406dd)"><g clip-path="url(#b13e5799b0)"><g clip-path="url(#1190fe8d99)"><path fill="#dddf5f" d="M 178.152344 75.542969 C 177.722656 74.949219 177.078125 74.652344 176.507812 74.71875 C 176.285156 74.746094 176.074219 74.828125 175.894531 74.972656 C 175.242188 75.480469 175.195312 76.5625 175.789062 77.382812 C 176.21875 77.976562 176.863281 78.277344 177.433594 78.207031 C 177.65625 78.179688 177.867188 78.097656 178.050781 77.957031 C 178.703125 77.445312 178.746094 76.367188 178.152344 75.542969 " fill-opacity="1" fill-rule="nonzero"/></g></g></g><g clip-path="url(#0885a61338)"><g clip-path="url(#7a846012af)"><g clip-path="url(#e8fefb7fb4)"><path fill="#dddf5f" d="M 187.226562 73.601562 C 187.015625 73.507812 186.789062 73.476562 186.570312 73.503906 C 186 73.574219 185.445312 74.015625 185.167969 74.695312 C 184.785156 75.636719 185.089844 76.675781 185.84375 77.015625 C 186.054688 77.109375 186.277344 77.136719 186.5 77.113281 C 187.070312 77.042969 187.625 76.597656 187.902344 75.921875 C 188.28125 74.980469 187.980469 73.941406 187.226562 73.601562 " fill-opacity="1" fill-rule="nonzero"/></g></g></g><g clip-path="url(#e363f9d7ea)"><g clip-path="url(#9a30bbe3f0)"><g clip-path="url(#a4101a4c63)"><g clip-path="url(#6625f5b20e)"><path fill="#dddf5f" d="M 186.074219 78.515625 C 185.863281 78.269531 185.609375 78.046875 185.316406 77.859375 C 185.117188 77.710938 184.914062 77.554688 184.738281 77.378906 C 184.546875 77.1875 184.367188 76.984375 184.21875 76.804688 L 184.101562 76.664062 C 183.984375 76.523438 183.871094 76.394531 183.757812 76.253906 C 183.574219 76.050781 183.414062 75.886719 183.246094 75.765625 C 182.949219 75.546875 182.625 75.417969 182.265625 75.375 C 182.039062 75.347656 181.800781 75.363281 181.578125 75.390625 C 181.371094 75.414062 181.164062 75.480469 180.980469 75.589844 C 180.757812 75.714844 180.566406 75.894531 180.371094 76.128906 C 180.257812 76.269531 180.140625 76.4375 180.023438 76.636719 C 179.90625 76.832031 179.800781 77.027344 179.699219 77.226562 L 179.640625 77.34375 C 179.5 77.585938 179.363281 77.855469 179.199219 78.101562 C 179.054688 78.316406 178.917969 78.488281 178.785156 78.648438 C 178.609375 78.835938 178.4375 79.054688 178.308594 79.28125 C 178.121094 79.601562 177.996094 79.941406 177.921875 80.273438 C 177.878906 80.503906 177.863281 80.734375 177.878906 80.957031 C 177.886719 81.152344 177.925781 81.359375 177.988281 81.535156 C 178.164062 82.035156 178.476562 82.421875 178.945312 82.675781 C 179.21875 82.828125 179.507812 82.902344 179.832031 82.894531 C 179.875 82.902344 179.902344 82.898438 179.945312 82.894531 L 179.972656 82.890625 C 179.988281 82.886719 180 82.886719 180.027344 82.882812 L 180.085938 82.875 C 180.097656 82.875 180.113281 82.875 180.125 82.871094 L 180.152344 82.867188 C 180.277344 82.851562 180.402344 82.824219 180.5 82.796875 C 180.769531 82.710938 181.039062 82.605469 181.28125 82.507812 L 181.296875 82.503906 C 181.523438 82.421875 181.753906 82.324219 181.984375 82.253906 C 182.078125 82.226562 182.203125 82.183594 182.328125 82.167969 C 182.492188 82.148438 182.644531 82.128906 182.785156 82.128906 C 182.984375 82.132812 183.210938 82.144531 183.457031 82.171875 C 183.570312 82.1875 183.699219 82.214844 183.816406 82.230469 C 183.972656 82.25 184.144531 82.273438 184.316406 82.292969 C 184.488281 82.316406 184.675781 82.335938 184.867188 82.3125 L 185.203125 82.273438 C 185.230469 82.269531 185.242188 82.253906 185.265625 82.207031 C 185.347656 82.199219 185.445312 82.171875 185.523438 82.136719 C 185.738281 82.050781 185.949219 81.929688 186.140625 81.75 C 186.394531 81.523438 186.585938 81.246094 186.691406 80.9375 C 186.804688 80.597656 186.835938 80.253906 186.777344 79.882812 C 186.734375 79.675781 186.667969 79.445312 186.554688 79.230469 C 186.441406 78.976562 186.285156 78.742188 186.074219 78.515625 " fill-opacity="1" fill-rule="nonzero"/></g></g></g></g><g clip-path="url(#a10a30151a)"><g clip-path="url(#07cb1b0fc7)"><g clip-path="url(#05fe83b31b)"><g transform="matrix(1, 0, 0, 1, 126, 105)"><g clip-path="url(#8e4f686235)"><g clip-path="url(#7dcf72f5d3)"><g clip-path="url(#fd5f5ec365)"><g clip-path="url(#9fcba2ef94)"><path fill="#291d11" d="M 8.835938 -8.550781 L 29.035156 9.433594 L 11.046875 29.632812 L -9.148438 11.644531 Z M 8.835938 -8.550781 " fill-opacity="1" fill-rule="nonzero"/></g></g></g></g></g></g></g></g><g clip-path="url(#55f399c67e)"><g clip-path="url(#5648031052)"><g clip-path="url(#8cc2110319)"><path fill="#dddf5f" d="M 133.964844 113.980469 C 134.050781 113.976562 134.136719 113.964844 134.222656 113.941406 C 135.074219 113.71875 135.566406 112.585938 135.320312 111.40625 C 135.101562 110.351562 134.363281 109.621094 133.597656 109.644531 C 133.511719 109.648438 133.425781 109.660156 133.339844 109.683594 C 132.488281 109.90625 131.996094 111.042969 132.242188 112.21875 C 132.460938 113.277344 133.199219 114.007812 133.964844 113.980469 " fill-opacity="1" fill-rule="nonzero"/></g></g></g><g clip-path="url(#113c29b5a7)"><g clip-path="url(#cfbdfbfbaa)"><g clip-path="url(#7ec791c327)"><path fill="#dddf5f" d="M 137.574219 113.832031 C 137.660156 113.847656 137.746094 113.855469 137.832031 113.851562 C 138.597656 113.828125 139.289062 113.050781 139.4375 111.980469 C 139.601562 110.789062 139.035156 109.691406 138.171875 109.523438 C 138.085938 109.507812 138 109.5 137.914062 109.503906 C 137.148438 109.527344 136.460938 110.304688 136.308594 111.375 C 136.144531 112.566406 136.710938 113.664062 137.574219 113.832031 " fill-opacity="1" fill-rule="nonzero"/></g></g></g><g clip-path="url(#b08f24541a)"><g clip-path="url(#6b22edc6c2)"><g clip-path="url(#d89e28f8a4)"><path fill="#dddf5f" d="M 132.359375 114.085938 C 131.980469 113.457031 131.367188 113.105469 130.792969 113.125 C 130.566406 113.132812 130.351562 113.195312 130.15625 113.320312 C 129.460938 113.769531 129.324219 114.84375 129.84375 115.714844 C 130.21875 116.34375 130.835938 116.695312 131.410156 116.675781 C 131.632812 116.671875 131.851562 116.605469 132.046875 116.480469 C 132.738281 116.03125 132.878906 114.957031 132.359375 114.085938 " fill-opacity="1" fill-rule="nonzero"/></g></g></g><g clip-path="url(#b3b5524f7d)"><g clip-path="url(#44c02eaab8)"><g clip-path="url(#5f5e61c8a7)"><path fill="#dddf5f" d="M 141.566406 112.941406 C 141.363281 112.828125 141.144531 112.777344 140.917969 112.785156 C 140.34375 112.804688 139.753906 113.199219 139.421875 113.851562 C 138.957031 114.757812 139.167969 115.816406 139.890625 116.21875 C 140.09375 116.332031 140.316406 116.382812 140.539062 116.375 C 141.113281 116.355469 141.703125 115.960938 142.035156 115.308594 C 142.5 114.40625 142.289062 113.34375 141.566406 112.941406 " fill-opacity="1" fill-rule="nonzero"/></g></g></g><g clip-path="url(#7c75c28c7d)"><g clip-path="url(#4b19f71637)"><g clip-path="url(#fda86a0a1b)"><g clip-path="url(#767706765d)"><path fill="#dddf5f" d="M 139.992188 117.734375 C 139.800781 117.472656 139.570312 117.230469 139.296875 117.015625 C 139.109375 116.851562 138.917969 116.675781 138.757812 116.484375 C 138.585938 116.28125 138.421875 116.0625 138.289062 115.871094 L 138.1875 115.71875 C 138.085938 115.570312 137.980469 115.433594 137.878906 115.28125 C 137.71875 115.0625 137.570312 114.886719 137.414062 114.75 C 137.136719 114.507812 136.824219 114.351562 136.472656 114.277344 C 136.246094 114.230469 136.007812 114.222656 135.785156 114.230469 C 135.574219 114.238281 135.367188 114.285156 135.171875 114.378906 C 134.9375 114.484375 134.734375 114.644531 134.515625 114.859375 C 134.394531 114.992188 134.257812 115.148438 134.125 115.335938 C 133.992188 115.523438 133.871094 115.710938 133.75 115.894531 L 133.683594 116.007812 C 133.523438 116.238281 133.367188 116.496094 133.175781 116.726562 C 133.015625 116.929688 132.867188 117.085938 132.71875 117.234375 C 132.527344 117.40625 132.335938 117.609375 132.191406 117.824219 C 131.976562 118.125 131.820312 118.453125 131.71875 118.78125 C 131.65625 119.003906 131.621094 119.230469 131.613281 119.457031 C 131.605469 119.652344 131.628906 119.859375 131.675781 120.042969 C 131.804688 120.554688 132.085938 120.96875 132.527344 121.261719 C 132.785156 121.433594 133.070312 121.535156 133.394531 121.554688 C 133.4375 121.566406 133.464844 121.566406 133.503906 121.5625 L 133.535156 121.5625 C 133.546875 121.5625 133.5625 121.5625 133.589844 121.5625 L 133.644531 121.558594 C 133.660156 121.558594 133.671875 121.558594 133.6875 121.558594 L 133.714844 121.558594 C 133.839844 121.554688 133.96875 121.535156 134.066406 121.519531 C 134.34375 121.453125 134.621094 121.371094 134.871094 121.292969 L 134.882812 121.292969 C 135.121094 121.230469 135.355469 121.152344 135.59375 121.101562 C 135.691406 121.085938 135.816406 121.054688 135.941406 121.050781 C 136.109375 121.042969 136.261719 121.039062 136.402344 121.046875 C 136.601562 121.070312 136.824219 121.105469 137.066406 121.152344 C 137.179688 121.175781 137.304688 121.214844 137.417969 121.238281 C 137.574219 121.273438 137.742188 121.3125 137.914062 121.347656 C 138.082031 121.382812 138.265625 121.421875 138.460938 121.414062 L 138.796875 121.402344 C 138.824219 121.402344 138.839844 121.386719 138.863281 121.34375 C 138.949219 121.339844 139.046875 121.324219 139.128906 121.292969 C 139.351562 121.230469 139.570312 121.125 139.777344 120.964844 C 140.050781 120.757812 140.265625 120.5 140.394531 120.199219 C 140.539062 119.875 140.597656 119.535156 140.570312 119.15625 C 140.550781 118.949219 140.5 118.710938 140.410156 118.492188 C 140.316406 118.226562 140.183594 117.980469 139.992188 117.734375 " fill-opacity="1" fill-rule="nonzero"/></g></g></g></g></svg>